# xmcd
#
# Track frame offsets:
#	150
#	15277
#	36176
#	56374
#	79828
#	90973
#	110569
#	129224
#	151562
#	180430
#	209083
#	232533
#	262543
#	273287
#	291101
#	309370
#	333773
#
# Disc length: 4564 seconds
#
# Revision: 1
# Processed by: cddbd v1.5.1PL0 Copyright (c) Steve Scherf et al.
# Submitted via: EasyCDDAExtractor 7.0.6.1
#
DISCID=be11d211
DTITLE=Tom Woll - Big Fat Woman
DYEAR=2003
DGENRE=Blues
TTITLE0=All Night Long
TTITLE1=Big Fat Woman
TTITLE2=Jayquilla
TTITLE3=Mona Lee
TTITLE4=Gotta Go To Texas
TTITLE5=Cushin For The Pushin
TTITLE6=Put Your Blue Jeans On
TTITLE7=Disco Blues
TTITLE8=You Got Me Running
TTITLE9=My Favourite Kind
TTITLE10=Spanish Blues Affair
TTITLE11=Slowmotion Lover
TTITLE12=Let Me Love You Baby
TTITLE13=Rose
TTITLE14=Leave That Swing Alone
TTITLE15=T-Bone Shuffle
TTITLE16=Fritz
EXTD=
EXTT0=
EXTT1=
EXTT2=
EXTT3=
EXTT4=
EXTT5=
EXTT6=
EXTT7=
EXTT8=
EXTT9=
EXTT10=
EXTT11=
EXTT12=
EXTT13=
EXTT14=
EXTT15=
EXTT16=
PLAYORDER=
